<svg width="1920" height="1080" viewBox="0 0 1920 1080" fill="none" xmlns="http://www.w3.org/2000/svg">
    <g clip-path="url(#clip0_1_2)">
        <rect width="1920" height="1080" fill="url(#paint0_linear_1_2)" />
        <rect y="567" width="1920" height="513" fill="#4B63A1" />
        <path
            d="M0 723.084L348.5 697.554L527.5 763.631L604 806.181L140.5 878.765L928.5 822.2L1255.5 861.746L1804.5 763.631L1401.5 651L1920 697.554V1080H0L0 723.084Z"
            fill="#2C3C82" fill-opacity="0.8" />
        <path
            d="M707.699 726L782.472 750.5L372.905 829L336.241 784L250.372 781L232.523 796.5L182.352 750.5L707.699 726Z"
            fill="#223E73" fill-opacity="0.5" />
        <path d="M1386.93 703.5L1753.09 741.5L1552.88 775L1351.72 757H898.251L1281.77 728.5L1199.28 703.5H1386.93Z"
            fill="#223E73" fill-opacity="0.5" />
        <path
            d="M1866.1 596L1920 613.387H1811.16L1920 631.129L1811.16 651H1675.9L1735.36 631.129L1675.9 613.387L1866.1 596Z"
            fill="#223E73" fill-opacity="0.5" />
        <path d="M301.508 621L376.281 645.5H37.6281L301.508 621Z" fill="#223E73" fill-opacity="0.5" />
        <path d="M1826.52 959L1501.02 994L1259.52 941L692.518 994L898.251 941L1281.77 912.5L1501.02 925.5L1826.52 959Z"
            fill="#223E73" fill-opacity="0.5" />
        <path
            d="M0 629.499L291.377 663.999H308.744L317.427 672.499L301.508 690.999H276.422L263.879 687.999L211.296 717.499H105.648L108.543 705.999L192.482 712.999V706.999L176.08 694.499L102.754 693.499L80.0804 714.999L0 705.999L0 629.499Z"
            fill="#6481B7" fill-opacity="0.8" />
        <path d="M279.317 695.499L327.075 707.999H344.442L353.126 716.499H245.065L279.317 695.499Z" fill="#6481B7"
            fill-opacity="0.8" />
        <path d="M284.623 800.5L392.683 788L349.749 813V882L206.472 838.5L250.372 821.5L284.623 800.5Z" fill="#6481B7"
            fill-opacity="0.8" />
        <path d="M960.965 671H1004.86V663L1022.23 683L995.216 687.5L972.06 748.5L960.965 671Z" fill="#6481B7"
            fill-opacity="0.8" />
        <path d="M1136.56 748.784L988.945 801.293L1092.66 734.29L1136.56 726.212V748.784Z" fill="#6481B7"
            fill-opacity="0.8" />
        <path
            d="M801.171 810.445L718.878 809.427L772.348 749.183L856.455 733.376L937.838 751.21L864.194 813.98L829.289 843.898L801.171 810.445Z"
            fill="#6481B7" fill-opacity="0.8" />
        <path
            d="M1491.14 754.5H1714.01L1606.92 740.183L1522.49 693L1723.18 740.183L1825.93 800.427L1661.91 785L1491.14 754.5Z"
            fill="#6481B7" fill-opacity="0.8" />
        <path d="M1832.2 731.5L1841.37 738.5L1824.96 753.5L1750.19 722L1794.09 731.5L1832.2 731.5Z" fill="#6481B7"
            fill-opacity="0.8" />
        <path
            d="M270.633 618.376L359.397 618.376L448.167 634.183L532.274 618.376L779.578 618.376L476.99 660.5L303.92 634.183L270.633 618.376Z"
            fill="#6481B7" fill-opacity="0.8" />
        <path d="M1356.06 620L1278.87 622.5L1397.07 607L1373.91 622.5L1356.06 620Z" fill="#6481B7" fill-opacity="0.8" />
        <path
            d="M910.794 588.5L884.744 587L917.548 586L938.774 574L920.925 572H946.975L923.337 586L954.693 587L892.462 592L910.794 588.5Z"
            fill="#6481B7" fill-opacity="0.8" />
        <path
            d="M859.176 644L894.392 654L781.025 659L757.869 664L803.698 678.14L878.315 689.36L786.814 690.5L670.553 678.14H744.844L693.226 664L762.211 644H859.176Z"
            fill="#6481B7" fill-opacity="0.8" />
        <path
            d="M879.633 612.384L919.82 608.556L876.394 621.129L851.446 619.087L824.925 619.081L827.734 611.496L842.578 606.856L877.98 616.846L879.633 612.384Z"
            fill="#6481B7" fill-opacity="0.8" />
        <path
            d="M1037.13 567.119L1029.06 579.619L1087.92 582.119L1054.15 586.119L1137.12 593.619L1039.19 596.119L1114.93 599.974L1032.88 599.037L990.951 599.037L1060.42 590.119L993.363 584.611L1015.4 575.922L1000.12 567.119L1037.13 567.119Z"
            fill="#6481B7" fill-opacity="0.8" />
        <path
            d="M1032.17 629.022L1074.66 630.199L1045.18 633.484L984.94 637.513L931.055 643.618L985.206 630.527L1032.17 629.022Z"
            fill="#6481B7" fill-opacity="0.8" />
        <path
            d="M1172.15 676.585L1071.7 658.98L1113.89 640.293L1199.36 663.356L1161.13 729.379L1133.25 694.717L1172.15 676.585Z"
            fill="#6481B7" fill-opacity="0.8" />
        <path d="M973.508 619L1185.77 617L1116.78 621H845.186L973.508 619Z" fill="#D9D9D9" />
        <path d="M894.217 593.5L1002.45 592L967.276 595H828.784L894.217 593.5Z" fill="#D9D9D9" />
        <path d="M1073.97 678.5L1329.53 671L1246.47 686H919.477L1073.97 678.5Z" fill="#D9D9D9" />
        <path d="M679.375 733.5L799.839 731L777.769 742.5L757.705 746L769.966 738.5L611.698 740L679.375 733.5Z"
            fill="#D9D9D9" />
        <path d="M807.558 676.5L928.022 674L969.509 676.5L951.66 679L898.149 681.5L874.957 679L807.558 676.5Z"
            fill="#D9D9D9" />
        <path d="M835.688 634.5L1100.86 632L1014.68 637H675.377L835.688 634.5Z" fill="#D9D9D9" />
        <mask id="mask0_1_2" style="mask-type:alpha" maskUnits="userSpaceOnUse" x="0" y="352" width="1920" height="728">
            <path
                d="M0 406.809L186.455 352.453L261.896 406.22L277.238 391.843L281.257 394.651L303.777 438.879L338.683 393.346L356.961 378.517L396.272 419.286L409.763 483.412L452.438 526.248L481.337 542.887L493.182 544.992L509.069 573.538L541.702 587.452L544.762 590.512L526.072 600.407L549.861 624.425L504.346 640.241L303.777 741V1080H1384.5L1665.5 629.5L1462.5 622L1428 610.5L1439.5 597L1406.5 591L1416.5 585L1490 577.5L1610.5 460.5L1648 439.5L1691 447L1773.5 401.5L1809.5 423H1920V1080H0V406.809Z"
                fill="#495E6E" />
        </mask>
        <g mask="url(#mask0_1_2)">
            <path d="M0 352.449H1920V1080H0V352.449Z" fill="#495E6E" />
            <path
                d="M190 353.5L362 376L571.5 620L494 650.5L332 533.5L325 515L262.5 489.5L225.5 434L261 458L278 481L326 488.5L359 542.5L461.5 606L480.5 599.5V593L471 560L467 557.5L443.5 553H437.5L433.5 550L427 542.5L422.5 533.5L422 529.5L420.5 525L431.5 536L440.5 546.5L447 543.5L472 557L479 567.5L484.5 580.5L506.5 585L509 578.5L490.5 551L473.5 549L455.5 531L451 528.5L439 517L431 515L413 508L415 505L423 506L417 496L404 481L388.5 450.5V444L366.5 431L356.5 412H359L378 422.5L382.5 419L379 406.5L359 390.5L357 378.5L348 376L303.5 439L303 440.5L301.5 442L289 428L277 410.5V391L259 400.5L262.5 407.5L259 408.5L250.5 401.5L221 384L198 363.5L190 353.5Z"
                fill="#638D96" />
            <path d="M351.5 403L355.5 400L357.5 403L358 410L356.5 409.5L351.5 403Z" fill="#638D96" />
            <path d="M1393.5 587L1511 574L1478.5 621L1446 628L1393.5 587Z" fill="#638D96" />
            <path d="M1611 460L1648.5 438.5L1647 451L1630.5 461L1611 460Z" fill="#638D96" />
            <path
                d="M1697 443L1775 400L1776 410L1759 427.5L1757.5 431L1718 444.5L1708.5 448.5L1710.5 444.5H1701L1697 443Z"
                fill="#638D96" />
            <path d="M1767.5 447.5L1784.5 424.5L1779 439.5L1772.5 444.5L1767.5 447.5Z" fill="#638D96" />
        </g>
        <mask id="mask1_1_2" style="mask-type:alpha" maskUnits="userSpaceOnUse" x="0" y="278" width="1920" height="802">
            <path
                d="M0 404.5L139 278.162L215 386.162L237.5 447.662L284 518.662L337 532.5L445.5 570L478 626L497.5 634.5L510.5 637.5L518.5 643L500.5 645.5L460.5 664L485 674.5L437.5 703.5L355 722.5L345 723.5L497.5 765L762 1080H1349L1532.5 776L1556.5 767L1586 723L1503 660L1500 653L1543 656.5L1494 628.5L1462 622.5L1449.5 604.5L1452.5 601.5L1482 590.5L1515.5 507L1609.5 444.5L1617 446L1614.5 471.5L1657 459L1773.5 452.5L1867.5 359.5L1920 378V1080H0V404.5Z"
                fill="#283B49" />
        </mask>
        <g mask="url(#mask1_1_2)">
            <rect y="278" width="1920" height="802" fill="#283B49" />
            <path d="M0 470L149.5 617.5L168.5 640.5L204.5 652.5L233 666L183 717L109 682.5L47 700L0 724.5V470Z"
                fill="#4B737F" />
            <path
                d="M1877.5 412L1880.5 414L1884.5 421.5V427.5L1873.5 430H1863.5L1850.5 435.5L1851.5 431.5L1863.5 421.5L1877.5 412Z"
                fill="#4B737F" />
            <path
                d="M1806 561L1807.5 566L1766.5 620.5L1728.5 628L1697.5 650L1661 684.5L1638 720L1626.5 729L1650.5 686L1686 629.5L1733.5 599.5L1806 561Z"
                fill="#4B737F" />
            <path d="M1826.5 520L1845.5 520.5H1920V543L1832 534H1822L1783 526.5L1808 522.5H1824.5L1826.5 520Z"
                fill="#4B737F" />
            <path
                d="M1726 479L1730 478.5L1732 493.5L1734 500.5L1684.5 535L1680.5 539L1684.5 540.5L1674.5 543.5L1631.5 544.949L1592 654L1585 656.5L1617 543.5L1627.5 540L1630.5 541.449L1668.5 538.5L1679 526L1683.5 519.5L1708.5 493L1714.5 489L1726 479Z"
                fill="#4B737F" />
            <path
                d="M137.043 279.941L139 278.164L562 675L345.5 725.5L350.5 720L431 693L445 672.5L427 641L420.5 631.5L416.5 624L383 610.5L362.5 612L348.5 614.5L341 614L355 609L384.5 591.5L398.5 588.5L434 598.5L438.5 602.5L400 607L399 610.5L416.5 614.5L422 617.5L426.391 628L441.5 652.5L465.5 646L469 638L462 607.5L456.5 596L427 579.5L424 567L368.5 550.5L313 545.5L296 534.5H274L249 507L228.5 471.5L250.5 486.5V479.5L237.5 462L233 452.5L215 431.5L204 394.5L191 375L166 349.5L161.5 332L137.043 279.941Z"
                fill="#4B737F" />
            <path
                d="M1387.33 585.426L1617 433L1868.5 358L1865.5 389.5L1834.5 407L1824.5 422.5L1787.5 444.5L1779 457.5L1770 459.5L1714.5 459.5L1708 455.868L1617 446.5L1609.51 457.5L1553.5 499.5V517L1519.5 541L1499.5 622.5L1510 629.5H1542.5L1566.5 643L1587 659.5L1592.33 685.5L1609.51 701.5L1615 710.5L1555 774.5L1387.33 585.426Z"
                fill="#4B737F" />
        </g>
        <path
            d="M-0.473335 879.538L-3 879.941V882.5V1034V1037H0H1920H1923V1034V800V796.452L1919.5 797.042L1783.25 820H1691H1690.16L1689.44 820.435L1614.58 865.853L1489.76 924.534L987.726 950.484L745.825 901.107L527.041 820.186L526.235 819.888L525.393 820.062L419.141 842.011L181.393 850.502L181.209 850.508L181.027 850.538L-0.473335 879.538Z"
            fill="#18103E" stroke="#A99DDF" stroke-width="6" />
        <mask id="mask2_1_2" style="mask-type:alpha" maskUnits="userSpaceOnUse" x="0" y="800" width="1920" height="234">
            <path
                d="M0 882.5L181.5 853.5L419.5 845L526 823L745 904L987.5 953.5L1490.5 927.5L1616 868.5L1691 823H1783.5L1920 800V1034H0V882.5Z"
                fill="#18103E" />
        </mask>
        <g mask="url(#mask2_1_2)">
            <path
                d="M454.5 834.5L528 819.5L1866 808.5L1825 858L1707.5 884.5L1614 918H784.5L645.5 874L533 866.5L454.5 834.5Z"
                fill="#3A2F6C" />
        </g>
        <path
            d="M0.316249 815.017L-3 814.665V818V1080V1083H0H1920H1923V1080V937.5V934.716L1920.22 934.508L1518.22 904.508L1517.96 904.489L1517.7 904.515L1151.83 941.002L895.257 944.496L592.55 888.051L592.482 888.038L592.414 888.029L283.413 845.029L283.365 845.022L283.316 845.017L0.316249 815.017Z"
            fill="#0D132E" stroke="#848FC6" stroke-width="6" />
        <mask id="mask3_1_2" style="mask-type:alpha" maskUnits="userSpaceOnUse" x="0" y="818" width="1920" height="262">
            <path d="M0 818L283 848L592 891L895 947.5L1152 944L1518 907.5L1920 937.5V1080H0V818Z" fill="#0D132E" />
        </mask>
        <g mask="url(#mask3_1_2)">
            <path
                d="M236.5 932L291.5 868.5L539 880L1524 988.5L1285 997L1270.5 1030.5L1094.5 1020L822 950.5L663.5 1016L330 1048.5L236.5 932Z"
                fill="#171F42" />
        </g>
        <circle cx="979" cy="105" r="80" fill="#EFF6FF" />
        <mask id="mask4_1_2" style="mask-type:alpha" maskUnits="userSpaceOnUse" x="899" y="25" width="160" height="160">
            <circle cx="979" cy="105" r="80" fill="white" />
        </mask>
        <g mask="url(#mask4_1_2)">
            <path d="M969 46.5L993 41L1002.5 46.5L1022.5 38V27L957.5 23.5V29L969 46.5Z" fill="#D6E7FF" />
            <path
                d="M1040.5 99L1041.5 106.5L1052.5 131.5L1054.5 132.5H1065.5L1055.5 73L1050.5 73.5L1040.5 71.5L1040 82L1036 81L1032 82L1032.5 86.5L1040.5 99Z"
                fill="#D6E7FF" />
            <path
                d="M982.5 102L983 103.5L984 105H987.5L993 101.5L996 105L1002.5 107.5L1005 107L1005.5 101L1021 96L1022 93L1020 90L1020.5 87L1020 84.5L1018 82L1015 80.5V75L1013.5 72.5L1007 71L1002 69.5L996 76L993.5 75L991 76L982.5 102Z"
                fill="#D6E7FF" />
            <path
                d="M1014.5 146.5L1010.5 146.5L1009.5 160.5L999.5 167.5L1002.5 173.5L1012 178L1032 168.5L1046.5 149.78L1034.54 143.504L1028.5 140.5L1014.5 146.5Z"
                fill="#D6E7FF" />
            <path
                d="M954.5 88.5L955 93L952.5 100L954.5 101.5L966 95L970 88.5L970 85.5L969 84.5L965 85L965 82.5776L963.5 81.5L954.5 88.5Z"
                fill="#D6E7FF" />
            <path
                d="M912.5 98.5L915 95.5L915 93L913.5 91.5L911.5 91.5L902.5 81L897 99L902.5 136L906.54 134.5L916.5 119L916 115.5L910 109.5L912.5 98.5Z"
                fill="#D6E7FF" />
            <path
                d="M967.5 171.112L975 158.5L979.5 152.5L992.5 147.232L995 144.904L995 140.095L989.5 132.5L984.5 130L979.5 130L975 132.5L967.5 129L964.5 129L962 130L961 140.095L940 148L934 146.5L930.5 144L924.5 144.5L920.5 144.5L915 146L912.5 144.5L907 144L935.5 177.5L964.5 184L962 179L964.5 172.5L967.5 171.112Z"
                fill="#D6E7FF" />
            <path d="M992.5 171L989.5 172L989 175.5L991 180L984 186L1006 181L992.5 171Z" fill="#D6E7FF" />
            <path fill-rule="evenodd" clip-rule="evenodd"
                d="M929.823 57.5C926.47 61.721 922.953 66.7308 921.981 70.1373L921.974 70.163L921.964 70.1876L921.963 70.1897L921.959 70.1986L921.945 70.2366C921.931 70.2706 921.912 70.3217 921.888 70.3879C921.839 70.5203 921.771 70.7125 921.695 70.9485C921.543 71.422 921.363 72.0646 921.243 72.7498C921.122 73.4396 921.068 74.1461 921.152 74.7568C921.236 75.3682 921.449 75.8252 921.808 76.1063C922.03 76.2799 922.242 76.337 922.452 76.3266C922.676 76.3156 922.935 76.2262 923.23 76.0425C923.827 75.6703 924.453 74.9845 925.036 74.1889C925.612 73.403 926.115 72.5525 926.476 71.8943C926.656 71.5662 926.8 71.288 926.898 71.0924C926.947 70.9946 926.985 70.9176 927.01 70.8655L927.039 70.8065L927.045 70.792L927.047 70.7886L927.208 70.4446L928.283 70.2366L931.19 71.108L930.966 71.6818L930.964 71.6861L930.958 71.7008L930.936 71.7608C930.916 71.8139 930.886 71.8924 930.85 71.9927C930.777 72.1935 930.676 72.4811 930.564 72.8266C930.338 73.5196 930.07 74.4359 929.892 75.3458C929.712 76.2705 929.637 77.1285 929.755 77.7323C931.5 77.9239 930.768 77.5 931.5 77.5C932.462 77.5 932.443 78.0458 933.422 77.1933C934.399 76.3418 935.641 73.1244 936.5 71.6818C938.141 68.9281 939.148 67.4312 939.908 64.3264C939.253 64.0959 938.518 63.7983 937.906 63.3804C937.143 62.86 936.5 62.1011 936.5 61C936.5 59.0656 937.473 57.5461 938.838 56.5904C940.039 55.7497 941.555 55.3349 943.019 55.44C943.039 54.9962 943.048 54.517 942.892 53.9964C942.687 53.3113 942.175 52.5448 940.804 51.9599C938.498 50.9764 937.019 51.5547 935 52.5C932.963 53.4535 931.5 55.39 929.823 57.5ZM943.41 56.4918C942.043 56.2664 940.5 58.5 940 59C939.5 59.5 940 60.5 939.5 62C939.5 62.808 940 63 940.583 63.5005C940.808 63.5029 941.06 63.5148 941.314 63.5268C941.474 63.5343 941.635 63.5419 941.79 63.5472C942.242 63.5625 942.694 63.5614 943.121 63.5044C943.966 63.3918 944.654 63.0737 945.053 62.2764C946.537 59.3073 944.989 56.8147 943.41 56.4918ZM940.893 64.5089C940.116 67.7043 938.765 71.3221 937.055 74.1934C936.164 75.6883 935.164 77.0019 934.078 77.9473C932.995 78.8917 931.788 79.5 930.5 79.5C930.017 79.5 929.607 79.3403 929.301 79.027C929.009 78.7271 928.853 78.3297 928.774 77.9239C928.617 77.1214 928.725 76.1044 928.911 75.1542C929.099 74.1891 929.381 73.2303 929.613 72.5171C929.69 72.2807 929.762 72.0702 929.823 71.8941L928 71.5L927.785 71.5545C927.683 71.7583 927.536 72.0423 927.353 72.3754C926.98 73.0544 926.454 73.946 925.842 74.7799C925.238 75.6041 924.521 76.4157 923.759 76.8911C923.373 77.1313 922.949 77.3033 922.502 77.3254C922.042 77.3481 921.596 77.2098 921.192 76.894C920.552 76.3931 920.265 75.6468 920.161 74.8928C920.058 74.1381 920.129 73.3174 920.258 72.5776C920.388 71.8332 920.582 71.1441 920.743 70.6432C920.824 70.392 920.896 70.1863 920.949 70.0427C920.976 69.9708 920.997 69.9143 921.012 69.8753L921.026 69.8389C922.029 66.3365 924.476 60.6188 927.922 56.281C929.649 54.1067 931.653 52.2466 933.883 51.2025C936.131 50.1502 938.601 49.9329 941.196 51.0401C942.814 51.7304 943.552 52.7139 943.85 53.71C944.063 54.4209 944.038 55.1414 944.015 55.6238C946.195 56.3866 947.537 59.5431 945.947 62.7236C945.346 63.9263 944.284 64.3582 943.254 64.4956C942.743 64.5636 942.226 64.5625 941.756 64.5466C941.568 64.5402 941.393 64.5319 941.229 64.524C941.112 64.5184 941.001 64.5131 940.893 64.5089Z"
                fill="#D6E7FF" />
        </g>
    </g>
    <defs>
        <linearGradient id="paint0_linear_1_2" x1="960" y1="0" x2="960" y2="1080" gradientUnits="userSpaceOnUse">
            <stop stop-color="#2F59AA" />
            <stop offset="1" stop-color="#1E0751" />
        </linearGradient>
        <clipPath id="clip0_1_2">
            <rect width="1920" height="1080" fill="white" />
        </clipPath>
    </defs>

    
</svg>