<svg xmlns="http://www.w3.org/2000/svg" xmlns:xlink="http://www.w3.org/1999/xlink" viewBox="0 0 350 425">
    <defs> 
        <style>
            .cls-1{
                fill:url(#Dark_to_light);
            }
            .cls-2{
                fill:#141414;
            }
            .cls-3{
                fill:#1eb1d2;
            }

            @media (prefers-color-scheme: dark) {
                .cls-1 {
                    fill:url(#Light_to_dark);
                }

                .cls-2 { 
                    fill: #ebebeb; 
                }
            }
        </style>
        
        <linearGradient id="Dark_to_light" x1="237.5" y1="425" x2="237.5" y2="75" gradientUnits="userSpaceOnUse">
            <stop offset="0.2" stop-color="#fff"/>
            <stop offset="0.8" stop-color="#141414"/>
        </linearGradient>

        <linearGradient id="Light_to_dark" x1="312.5" y1="350" x2="312.5" gradientUnits="userSpaceOnUse">
            <stop offset="0.2"/>
            <stop offset="0.8" stop-color="#ebebeb"/>
        </linearGradient>
    </defs>
    
    <title>Logo CB</title>
        <g id="cb_logo">
            <path id="B" class="cls-1" d="M325,75H275a25,25,0,0,0-25,25h0a25,25,0,0,0,25,25h15a10,10,0,0,1,10,10v75a15,15,0,0,1-15,15H150a25,25,0,0,0-25,25h0a25,25,0,0,0,25,25H285a15,15,0,0,1,15,15v75a10,10,0,0,1-10,10H150a25,25,0,0,0-25,25h0a25,25,0,0,0,25,25H325a25,25,0,0,0,25-25V100A25,25,0,0,0,325,75Z"/>
            <circle id="B_dot" data-name="B dot" class="cls-2" cx="200" cy="100" r="25"/>
            <circle id="C_dot" data-name="C dot" class="cls-3" cx="150" cy="325" r="25"/>
            <path id="C" class="cls-3" d="M0,25V325a25,25,0,0,0,25,25H75a25,25,0,0,0,25-25h0a25,25,0,0,0-25-25H60a10,10,0,0,1-10-10V60A10,10,0,0,1,60,50H200a25,25,0,0,0,25-25h0A25,25,0,0,0,200,0H25A25,25,0,0,0,0,25Z"/>
            <path id="B_second_part" data-name="B second part" class="cls-2" d="M350,250V400a25,25,0,0,1-25,25H150a25,25,0,0,1,0-50H290a10,10,0,0,0,10-10V290a15,15,0,0,0-15-15H150a25,25,0,0,1,0-50H325A25,25,0,0,1,350,250Z"/>
        </g>
</svg>